<?xml version="1.0" encoding="utf-8"?>
<!-- Generator: Adobe Illustrator 24.0.0, SVG Export Plug-In . SVG Version: 6.00 Build 0)  -->
<svg version="1.1" id="图层_1" xmlns="http://www.w3.org/2000/svg" xmlns:xlink="http://www.w3.org/1999/xlink" x="0px" y="0px"
	 viewBox="0 0 200 200" style="enable-background:new 0 0 200 200;" xml:space="preserve">
<style type="text/css">
	.st0{fill:#17B3A3;}
	.st1{fill:#FD9A16;}
</style>
<path class="st0" d="M81.5,184.8H31.3c-4.4,0-8.7-4.3-8.7-8.7V23.9c0-4.4,4.3-8.7,8.7-8.7h127.3c4.4,0,8.7,4.3,8.7,8.7V100
	c-0.1,4.1,3.1,7.5,7.2,7.6c0.1,0,0.3,0,0.4,0c4.1,0.1,7.5-3.1,7.6-7.2c0-0.1,0-0.2,0-0.4V23.9c0-13-10.9-23.9-23.9-23.9H31.3
	C18.3,0,7.4,10.8,7.4,23.9v152.2c0,13,10.9,23.9,23.9,23.9h50.1c4.1,0.1,7.5-3.1,7.6-7.2c0-0.1,0-0.2,0-0.4c0.1-4.1-3.1-7.5-7.2-7.6
	C81.7,184.8,81.6,184.8,81.5,184.8L81.5,184.8z"/>
<path class="st0" d="M93.5,125H49.4c-3.2-0.1-5.9,3.1-6,7.2c0,0.1,0,0.2,0,0.4c-0.1,4.1,2.5,7.5,5.7,7.6c0.1,0,0.2,0,0.3,0h44.1
	c3.2,0.1,5.9-3.1,6-7.2c0-0.1,0-0.2,0-0.4c0.1-4.1-2.5-7.5-5.7-7.6C93.7,125,93.6,125,93.5,125z"/>
<path class="st0" d="M49.4,96.7H136c3.2,0.1,5.9-3.1,6-7.2c0-0.1,0-0.2,0-0.4c0.1-4.1-2.5-7.5-5.7-7.6c-0.1,0-0.2,0-0.3,0H49.4
	c-3.2-0.1-5.9,3.1-6,7.2c0,0.1,0,0.2,0,0.4c-0.1,4.1,2.5,7.5,5.7,7.6C49.2,96.7,49.3,96.7,49.4,96.7z"/>
<path class="st0" d="M49.4,53.3H136c3.2,0.1,5.9-3.1,6-7.2c0-0.1,0-0.2,0-0.4c0.1-4.1-2.5-7.5-5.7-7.6c-0.1,0-0.2,0-0.3,0H49.4
	c-3.2-0.1-5.9,3.1-6,7.2c0,0.1,0,0.2,0,0.4c-0.1,4.1,2.5,7.5,5.7,7.6C49.2,53.3,49.3,53.3,49.4,53.3z"/>
<path class="st1" d="M148.8,199.6c-6.5,0-13.3-2.4-18.5-7.5L117,178.8c-9.9-9.9-10.3-26.3,0-36.6l13.7-13.3
	c10.3-9.9,26.7-9.9,36.6,0l13.3,13.3c9.9,9.9,10.3,26.3,0.3,36.3l-0.3,0.3l-13.3,13.3C162.1,197.2,155.3,199.6,148.8,199.6
	L148.8,199.6z M126.5,152.1c-4.4,4.4-4.4,12.3,0.3,17.1l13.3,13.3c4.8,4.8,12.7,4.8,17.4,0l13.7-13.7c4.4-4.8,4.4-12.3,0-17.1
	L158,138.4c-4.8-4.8-12.7-4.8-17.4,0C140.6,138.4,126.5,152.1,126.5,152.1z"/>
</svg>
