<?xml version="1.0" encoding="utf-8"?>
<!-- Generator: Adobe Illustrator 24.0.0, SVG Export Plug-In . SVG Version: 6.00 Build 0)  -->
<svg version="1.1" id="图层_1" xmlns="http://www.w3.org/2000/svg" xmlns:xlink="http://www.w3.org/1999/xlink" x="0px" y="0px"
	 viewBox="0 0 200 200" style="enable-background:new 0 0 200 200;" xml:space="preserve">
<style type="text/css">
	.st0{fill:#17B3A3;}
	.st1{fill:#FD9A16;}
</style>
<path class="st0" d="M81.5,184.8H31.3c-4.4,0-8.7-4.3-8.7-8.7V23.9c0-4.4,4.3-8.7,8.7-8.7h127.3c4.4,0,8.7,4.3,8.7,8.7V100
	c-0.1,4.1,3.1,7.5,7.2,7.6c0.1,0,0.3,0,0.4,0c4.1,0.1,7.5-3.1,7.6-7.2c0-0.1,0-0.2,0-0.4V23.9c0-13-10.9-23.9-23.9-23.9H31.3
	C18.3,0,7.4,10.8,7.4,23.9v152.2c0,13,10.9,23.9,23.9,23.9h50.1c4.1,0.1,7.5-3.1,7.6-7.2c0-0.1,0-0.2,0-0.4c0.1-4.1-3.1-7.5-7.2-7.6
	C81.7,184.8,81.6,184.8,81.5,184.8L81.5,184.8z"/>
<path class="st0" d="M93.5,125H49.4c-3.2-0.1-5.9,3.1-6,7.2c0,0.1,0,0.2,0,0.4c-0.1,4.1,2.5,7.5,5.7,7.6c0.1,0,0.2,0,0.3,0h44.1
	c3.2,0.1,5.9-3.1,6-7.2c0-0.1,0-0.2,0-0.4c0.1-4.1-2.5-7.5-5.7-7.6C93.7,125,93.6,125,93.5,125z"/>
<path class="st0" d="M49.4,96.7H136c3.2,0.1,5.9-3.1,6-7.2c0-0.1,0-0.2,0-0.4c0.1-4.1-2.5-7.5-5.7-7.6c-0.1,0-0.2,0-0.3,0H49.4
	c-3.2-0.1-5.9,3.1-6,7.2c0,0.1,0,0.2,0,0.4c-0.1,4.1,2.5,7.5,5.7,7.6C49.2,96.7,49.3,96.7,49.4,96.7z"/>
<path class="st0" d="M49.4,53.3H136c3.2,0.1,5.9-3.1,6-7.2c0-0.1,0-0.2,0-0.4c0.1-4.1-2.5-7.5-5.7-7.6c-0.1,0-0.2,0-0.3,0H49.4
	c-3.2-0.1-5.9,3.1-6,7.2c0,0.1,0,0.2,0,0.4c-0.1,4.1,2.5,7.5,5.7,7.6C49.2,53.3,49.3,53.3,49.4,53.3z"/>
<path class="st1" d="M148.9,116.3c-10.9,0-19.6,8.7-19.6,19.6c0,10.9,8.7,19.6,19.6,19.6c10.9,0,19.6-8.7,19.6-19.6
	C168.4,125,159.7,116.3,148.9,116.3z M156.5,135.9c0.1,4.1-3.1,7.5-7.2,7.6c-0.1,0-0.2,0-0.4,0c-4.1,0.1-7.5-3.1-7.6-7.2
	c0-0.1,0-0.3,0-0.4c0-4.3,4.4-7.6,7.6-7.6c4.1-0.1,7.5,3.1,7.6,7.2C156.5,135.6,156.5,135.7,156.5,135.9z"/>
<path class="st1" d="M192.3,191.3c-1.1-2.2-1.1-4.4-2.2-7.6c-6.5-16.3-22.8-27.2-41.3-27.2s-35.9,12-42.4,29.3
	c-1.1,2.2-1.1,3.3-1.1,5.4c-1.1,3.3,1.1,6.5,4.4,7.6h1.1c3.3,0,5.4-2.2,6.5-5.4c0-1.1,1.1-2.2,1.1-3.3c4.4-11.9,16.3-20.6,29.4-20.6
	c13,0,23.9,7.6,29.3,19.6c1.1,1.1,1.1,3.3,2.2,5.4c1.1,3.3,4.3,5.4,7.6,4.4C191.2,197.8,193.4,194.6,192.3,191.3L192.3,191.3z"/>
</svg>
