<?xml version="1.0" encoding="utf-8"?>
<!-- Generator: Adobe Illustrator 24.0.0, SVG Export Plug-In . SVG Version: 6.00 Build 0)  -->
<svg version="1.1" id="图层_1" xmlns="http://www.w3.org/2000/svg" xmlns:xlink="http://www.w3.org/1999/xlink" x="0px" y="0px"
	 viewBox="0 0 200 200" style="enable-background:new 0 0 200 200;" xml:space="preserve">
<path d="M68.6,55h63.2c6.7,0,12-5.4,12-12V17.4h-24.2C118.4,8.1,110.2,0,99.5,0C90,0,82,8.1,80.7,17.4H56.5V43
	C56.5,49.6,61.9,55,68.6,55z"/>
<path d="M185.2,177c-0.2-45.7-0.2-91.4,0-136.9c0.4-12.9-9.7-23.6-22.5-24c-1.3,0-2.6,0-4,0.2c-5.1,0.5-6.6,1.9-6.9,6.9
	c-0.4,5.7-0.4,11.3-0.2,17c1,12.8-8.6,24-21.5,25c-1.2,0.1-2.3,0.1-3.5,0C108.4,65,90.3,65.4,72.1,65c-12.6,1-23.7-8.4-24.7-21
	c-0.1-1.3-0.1-2.5,0-3.8c-0.2-5.9,0.2-11.8-0.2-17.7c0.2-3.2-2.1-6-5.2-6.4c-11.9-2.6-23.7,5-26.3,16.9c-0.4,1.6-0.5,3.3-0.5,5
	v139.7c-0.9,7.8,3,15.3,9.8,19.1c2.9,2.1,6.4,3.1,10,2.9l-0.9,0.2c40.3,0,89.4-0.5,129.6-0.5c11.2,0.6,20.9-8,21.5-19.2
	C185.3,179.2,185.3,178.1,185.2,177z M132.5,154.6l-8.1,8.1c-0.9,0.9-3.6,1.8-5.4,0l-23.3-23.3c-8.1,2.7-17,0.9-23.3-5.4
	c-6.3-6.3-8.1-17-3.6-25.1l14.3,14.3L94,112.5L80.6,99.1c8.1-4.5,17.9-3.6,25.1,3.6c6.3,6.3,7.2,16.1,3.6,23.3l23.3,23.3
	C133.4,150.1,134.3,152.8,132.5,154.6z"/>
</svg>
