<?xml version="1.0" encoding="utf-8"?>
<!-- Generator: Adobe Illustrator 24.0.0, SVG Export Plug-In . SVG Version: 6.00 Build 0)  -->
<svg version="1.1" id="图层_1" xmlns="http://www.w3.org/2000/svg" xmlns:xlink="http://www.w3.org/1999/xlink" x="0px" y="0px"
	 viewBox="0 0 200 200" style="enable-background:new 0 0 200 200;" xml:space="preserve">
<g>
	<path d="M105.4,156.4h-55c-4.1,0-6.7-2.7-6.7-6.7c0-4.1,2.7-6.7,6.7-6.7h56.4c2.7-8.1,6.7-16.1,12-21.5H50.4
		c-4.1,0-6.7-2.7-6.7-6.7s2.7-6.7,6.7-6.7h91.3c4.1-1.3,8.1-1.3,10.7-1.3c10.7,0,20.2,4.1,28.1,9.3V41c0-13.4-10.7-24.2-24.2-24.2
		h-4.1v25.6c0,13.4-10.7,24.2-24.2,24.2H65.1C51.7,66.4,41,55.7,41,42.3V16.8h-6.7c-13.4,0-24.2,10.7-24.2,24.2v134.3
		c0,13.4,10.7,24.2,24.2,24.2h106.1C121.5,195.4,106.7,177.9,105.4,156.4L105.4,156.4z"/>
	<path d="M65.1,54.4h63.2c6.7,0,12-5.4,12-12V16.8h-24.2C114.9,7.5,106.7,0.4,96,0.4c-9.5,0-17.5,7.1-18.8,16.4H53v25.6
		C53,49,58.4,54.4,65.1,54.4z"/>
	<path d="M181.9,131c-6.7-8.1-17.4-13.4-28.1-13.4h-6.7c-4.1,0-6.7,1.4-10.7,4.1c-8.1,4.1-14.8,12-18.8,21.5
		c-1.3,4.1-1.3,8.1-1.3,12v1.3c1.3,20.2,17.4,34.9,36.3,34.9c10.7,0,21.5-5.4,28.1-13.4c5.4-6.7,8.1-14.8,8.1-24.2
		C190,145.7,186,137.6,181.9,131z M171.5,170.2L171.5,170.2h-24.7c-2.3,0-4.1-1.8-4.1-4.1v-28.9c0-2.3,1.8-4.1,4.1-4.1
		c2.3,0,4.1,1.8,4.1,4.1V162h20.6c2.3,0,4.1,1.8,4.1,4.1C175.7,168.4,173.8,170.2,171.5,170.2z"/>
</g>
</svg>
