<?xml version="1.0" encoding="utf-8"?>
<!-- Generator: Adobe Illustrator 24.0.0, SVG Export Plug-In . SVG Version: 6.00 Build 0)  -->
<svg version="1.1" id="图层_1" xmlns="http://www.w3.org/2000/svg" xmlns:xlink="http://www.w3.org/1999/xlink" x="0px" y="0px"
	 viewBox="0 0 200 200" style="enable-background:new 0 0 200 200;" xml:space="preserve">
<style type="text/css">
	.st0{fill:#FFFFFF;}
</style>
<path class="st0" d="M99,27.4c-0.9,0-1.8,0-2.7,0V7c0-5.6-6.5-8.9-11.2-5.8L9.4,51c-2,1.3-3.2,3.5-3.2,5.8s1.2,4.4,3.2,5.8
	l75.7,49.8c4.8,3.2,11.3-0.2,11.3-5.8V85.9c36.5-0.4,66.8,24.2,68.3,56.1c1.1,24.4-15.1,46.1-39.1,56.1c-0.4,0.2-0.9,0.5-0.9,1.2
	c0,0.6,0.7,0.8,1.2,0.6c38.4-11,66.7-43.1,67.8-81.8C195,69.4,152.6,28.7,99,27.4z"/>
</svg>
