<?xml version="1.0" encoding="utf-8"?>
<!-- Generator: Adobe Illustrator 24.0.0, SVG Export Plug-In . SVG Version: 6.00 Build 0)  -->
<svg version="1.1" id="图层_1" xmlns="http://www.w3.org/2000/svg" xmlns:xlink="http://www.w3.org/1999/xlink" x="0px" y="0px"
	 viewBox="0 0 200 200" style="enable-background:new 0 0 200 200;" xml:space="preserve">
<path d="M105.4,156.4h-55c-4.1,0-6.7-2.7-6.7-6.7c0-4.1,2.7-6.7,6.7-6.7h56.4c2.7-8.1,6.7-16.1,12-21.5H50.4c-4.1,0-6.7-2.7-6.7-6.7
	s2.7-6.7,6.7-6.7h91.3c4.1-1.3,8.1-1.3,10.7-1.3c10.7,0,20.2,4.1,28.1,9.3V41c0-13.4-10.7-24.2-24.2-24.2h-4.1v25.6
	c0,13.4-10.7,24.2-24.2,24.2H65.1C51.7,66.4,41,55.7,41,42.3V16.8h-6.7c-13.4,0-24.2,10.7-24.2,24.2v134.3
	c0,13.4,10.7,24.2,24.2,24.2h106.1C121.5,195.4,106.7,177.9,105.4,156.4L105.4,156.4z"/>
<path d="M65.1,54.4h63.2c6.7,0,12-5.4,12-12V16.8h-24.2C114.9,7.5,106.7-0.6,96-0.6c-9.5,0-17.5,8.1-18.8,17.4H53v25.6
	C53,49,58.4,54.4,65.1,54.4z M181.9,131c-6.7-8.1-17.4-13.4-28.1-13.4h-6.7c-4.1,0-6.7,1.4-10.7,4.1c-8.1,4.1-14.8,12-18.8,21.5
	c-1.3,4.1-1.3,8.1-1.3,12v1.3c1.3,20.2,17.4,34.9,36.3,34.9c10.7,0,21.5-5.4,28.1-13.4c5.4-6.7,8.1-14.8,8.1-24.2
	C190,145.7,186,137.6,181.9,131L181.9,131z M173.9,148.4l-21.5,21.5c-2.7,2.7-5.4,2.7-8.1,0L131,156.4c-2.7-2.7-2.7-5.4,0-8.1
	c2.7-2.7,5.4-2.7,8.1,0l6.7,6.7l2.7,2.7l17.4-17.4c2.7-2.7,5.4-2.7,8.1,0C176.5,143,176.5,145.7,173.9,148.4z"/>
</svg>
