<?xml version="1.0" encoding="utf-8"?>
<!-- Generator: Adobe Illustrator 24.0.0, SVG Export Plug-In . SVG Version: 6.00 Build 0)  -->
<svg version="1.1" id="图层_1" xmlns="http://www.w3.org/2000/svg" xmlns:xlink="http://www.w3.org/1999/xlink" x="0px" y="0px"
	 viewBox="0 0 200 200" style="enable-background:new 0 0 200 200;" xml:space="preserve">
<style type="text/css">
	.st0{fill:#17B3A3;}
	.st1{fill:#FD9A16;}
</style>
<path class="st0" d="M163.4,0H30.1c-11.1,0-20,8.9-20,20v160c0,11.1,8.9,20,20,20h133.3c11.1,0,20-8.9,20-20V20
	C183.4,8.9,174.5,0,163.4,0L163.4,0z M56.7,13.3h80v20h-80C56.7,33.3,56.7,13.3,56.7,13.3z M170.1,180c0,3.6-2.9,6.6-6.5,6.7h-0.1
	H30.1c-3.6,0-6.6-2.9-6.7-6.5v-0.1V20c0-3.6,2.9-6.6,6.5-6.7H30h13.3v20c0,7.3,6,13.3,13.3,13.3h80c7.3,0,13.3-6,13.3-13.3v-20h13.3
	c3.6,0,6.6,2.9,6.7,6.5v0.1L170.1,180L170.1,180z"/>
<path class="st1" d="M143.1,158.7c-3.7,3.7-8.8,5.6-14.1,5.4c-2.5-0.1-5-0.7-7.3-1.8c-2.4-1.1-4.5-2.7-6.3-4.7l-25.2-29.2
	c-2.5,0.6-5.2,1-7.8,1c-8.2,0-16.1-3.2-21.9-8.9c-8.8-8.7-11.5-21.8-6.8-33.2c0.8-1.8,2.9-2.7,4.7-1.9c0.4,0.2,0.8,0.4,1.1,0.8
	l10.4,10.2c2.8,2.7,7.2,2.7,10,0c2.7-2.6,2.7-6.9,0.1-9.6c0,0,0,0-0.1-0.1L69.5,76.4c-1.4-1.4-1.4-3.7,0-5.1
	c0.3-0.3,0.8-0.6,1.2-0.8c5.6-2.2,11.7-2.8,17.6-1.7c6.1,1.1,11.6,4.1,16,8.4c7.8,7.6,10.9,18.8,8.1,29.3l29.6,24.8
	c7.8,6.6,8.9,18.2,2.3,26.1C143.9,157.9,143.5,158.3,143.1,158.7L143.1,158.7z M99.2,115.4c4.5-4.3,7-10.3,6.9-16.5
	c0-6.2-2.5-12.1-6.9-16.5c-5.3-5.2-12.8-7.7-20.2-6.6l5.9,5.8c5.5,5.4,5.6,14.3,0.1,19.8c0,0-0.1,0.1-0.1,0.1
	c-5.6,5.5-14.5,5.5-20.1,0l-6-5.9c-1.1,7.3,1.4,14.7,6.7,19.9C74.8,124.5,89.9,124.5,99.2,115.4z M120.8,152.9
	c2.1,2.5,5.2,3.9,8.4,4c3.3,0.2,6.4-1.1,8.7-3.4c2.3-2.2,3.5-5.3,3.4-8.5c-0.1-3.2-1.6-6.2-4.1-8.3l-27.7-23.3
	c-2.9,5.1-7.1,9.4-12.3,12.2L120.8,152.9L120.8,152.9z M133.3,139.8c2.6,2.5,2.6,6.6,0.1,9.2c0,0-0.1,0.1-0.1,0.1
	c-2.6,2.5-6.7,2.5-9.3,0c-2.6-2.5-2.6-6.6-0.1-9.2c0,0,0.1-0.1,0.1-0.1C126.6,137.2,130.7,137.2,133.3,139.8L133.3,139.8z"/>
</svg>
