<?xml version="1.0" encoding="utf-8"?>
<!-- Generator: Adobe Illustrator 24.0.0, SVG Export Plug-In . SVG Version: 6.00 Build 0)  -->
<svg version="1.1" id="图层_1" xmlns="http://www.w3.org/2000/svg" xmlns:xlink="http://www.w3.org/1999/xlink" x="0px" y="0px"
	 viewBox="0 0 200 200" style="enable-background:new 0 0 200 200;" xml:space="preserve">
<path d="M175.7,200H71c-13,0-23.5-10.4-23.5-23.5V71.3c0-13,10.4-23.5,23.5-23.5h105.2c13,0,23.5,10.4,23.5,23.5v105.2
	C199.7,189.6,188.8,200,175.7,200L175.7,200z M71,56.5c-8.3,0-14.8,6.5-14.8,14.8v105.2c0,8.3,6.5,14.8,14.8,14.8h105.2
	c8.3,0,14.8-6.5,14.8-14.8V71.3c0-8.3-6.5-14.8-14.8-14.8C176.2,56.5,71,56.5,71,56.5z"/>
<path d="M34.7,67c0-13,10.4-23.5,23.5-23.5h93.9v-20c0-13-10.4-23.5-23.5-23.5H23.8C10.8,0,0.3,10.4,0.3,23.5v105.2
	c0,13,10.4,23.5,23.5,23.5h10.9V67z"/>
<path d="M129.1,117.7l23.3,23.3c0.9,0.9,1.8,3.6,0,5.4l-8.1,8.1c-0.9,0.9-3.6,1.8-5.4,0l-23.3-23.3c-8.1,2.7-17,0.9-23.3-5.4
	c-6.3-6.3-8.1-17-3.6-25.1l14.3,14.3l10.7-10.7l-13.4-13.4c8.1-4.5,17.9-3.6,25.1,3.6C131.8,100.7,132.6,110.5,129.1,117.7z"/>
</svg>
