<?xml version="1.0" standalone="no"?><!DOCTYPE svg PUBLIC "-//W3C//DTD SVG 1.1//EN" "http://www.w3.org/Graphics/SVG/1.1/DTD/svg11.dtd"><svg t="1600242665800" class="icon" viewBox="0 0 1024 1024" version="1.1" xmlns="http://www.w3.org/2000/svg" p-id="12399" xmlns:xlink="http://www.w3.org/1999/xlink" width="200" height="200"><defs><style type="text/css"></style></defs><path d="M896 128h-381.8496a76.8 76.8 0 0 1-61.44-30.3616l-66.56-61.0304a31.0784 31.0784 0 0 1-3.0208-3.328A88.7296 88.7296 0 0 0 314.368 0H128A128 128 0 0 0 0 128v766.6688A130.0992 130.0992 0 0 0 130.048 1024h763.904a130.0992 130.0992 0 0 0 130.048-129.3312V256a128.3584 128.3584 0 0 0-128-128z m-66.56 568.32a61.8496 61.8496 0 0 1-61.44 61.44H256.256A61.8496 61.8496 0 0 1 194.56 696.32v-9.728a61.8496 61.8496 0 0 1 61.44-61.696h512a61.8496 61.8496 0 0 1 61.44 61.44z m0-250.88a61.8496 61.8496 0 0 1-61.44 61.44H256.256A61.8496 61.8496 0 0 1 194.56 445.44v-9.728a61.8496 61.8496 0 0 1 61.44-61.44h512a61.8496 61.8496 0 0 1 61.696 61.44z" p-id="12400"></path></svg>