<?xml version="1.0" encoding="utf-8"?>
<svg version="1.1" xmlns:xlink="http://www.w3.org/1999/xlink" width="30px" height="30px" xmlns="http://www.w3.org/2000/svg">
  <g transform="matrix(1 0 0 1 -45 -45 )">
    <path d="M 26.5817142823661 5.86285714285714  L 26.5817142823661 14.9485714252232  C 25.4486776083372 14.3580555925871  24.1873200475862 14.056554626835  22.9097142823661 14.0708571428571  C 22.9028569071884 14.0708399450075  22.8959995131426 14.0708313460725  22.8891421163994 14.0708313460725  C 18.3588292169063 14.0708313460725  14.6862849835869 17.7433755793919  14.6862849835869 22.273688478885  C 14.6862849835869 22.2748399372273  14.6862852260371 22.2759913955544  14.6862857109375 22.2771428537946  C 14.6755409777845 25.1763417976815  16.2161090556658 27.8599120023111  18.7251428470982 29  L 5.87485713616072 29  C 2.63728015072526 29.3069361491885  0.0122550985113019 26.6872729776669  0 23.4497142823661  L 0 5.86285714285714  C 0 2.64000000334821  2.64342858147321 0  5.87485713616071 0  L 20.7068571462054 0  C 23.9444341316408 0.00563527603466579  26.5694591838548 2.62529844755635  26.5817142823661 5.86285714285714  Z M 5.94857141517857 7.91485714285714  L 5.94857141517857 8  L 20.63485715625 8  C 21.2228571595982 7.91657143191964  21.7354285948661 7.40228570758929  21.7354285647321 6.81771428236607  C 21.7354285647321 6.23142856808036  21.2211428404018 5.71714284375  20.63485715625 6  L 5.94857141517857 6  C 5.36228570089286 5.71714284375  4.8462856875 6.23142856808036  4.84628571763393 6.81771428236607  C 4.84619252936933 6.82350571738494  4.84614593297541 6.8292978083726  4.84614593297541 6.83508999307532  C 4.84614593297541 7.43155752289258  5.32967840315815 7.91508999307532  5.92614593297541 7.91508999307532  C 5.93362169813658 7.91508999307532  5.94109726180772 7.91501237215212  5.94857141517857 7.91485714285714  Z M 5.92611697710592 13.5585191595749  C 5.93360239656827 13.5585191595749  5.94108761375885 13.5584413380409  5.94857141517857 13.5582857075893  L 14.1737142756696 13.5582857075893  C 14.7599999899554 13.5582857075893  15.2742857142857 13.0457142723214  15.2742857142857 12.4611428470982  C 15.2742857142857 11.87314284375  14.7599999899554 11.3605714084821  14.1719999866071 11.3605714386161  L 5.94857141517857 11.3605714386161  C 5.36228570089286 11.3605714386161  4.8462856875 11.8748571629464  4.84628571763393 12.4594285580357  C 4.8461732261457 12.4657914704442  4.84611697710592 12.4721552528619  4.84611697710592 12.4785191595749  C 4.84611697710592 13.0749866893922  5.32964944728867 13.5585191595749  5.92611697710592 13.5585191595749  Z M 5.94857141517857 18.6137142991071  L 5.94857141517857 18.6154285580357  L 9.62057141517857 18.6154285580357  C 10.2068571294643 18.6154285580357  10.7211428537946 18.1011428337054  10.7211428537946 17.5165714386161  C 10.7211428537946 16.9302857243304  10.2068571294643 16.416  9.62057141517857 16.416  L 5.94857141517857 16.416  C 5.36057141183036 16.416  4.8462856875 16.9302857243304  4.84628571763393 17.5165714386161  C 4.84619252936933 17.5223628736349  4.84614593297541 17.5281549646226  4.84614593297541 17.5339471493253  C 4.84614593297541 18.1304146791426  5.32967840315815 18.6139471493253  5.92614593297541 18.6139471493253  C 5.93362169813649 18.6139471493253  5.94109726180781 18.6138695284021  5.94857141517857 18.6137142991071  Z M 4.84628571763393 23.1582857142857  C 4.77257143861607 23.7445714285714  5.2868571328125 24.2571428638393  5.94857141517857 24.2571428638393  L 9.62057141517857 24.2571428638393  C 10.2068571294643 24.2571428638393  10.7211428537946 23.7445714285714  10.7211428537946 23.1600000033482  C 10.7211428537946 22.572  10.2068571294643 22.0594285647321  9.62057141517857 22.0594285647321  L 5.94857141517857 22.0594285647321  C 5.36057141183036 22.0594285647321  4.8462856875 22.5737142890625  4.84628571763393 23.1582857142857  Z M 22.8377142924107 29.3142857142857  C 18.9487576549784 29.3171279438357  15.7933026360754 26.1678119409833  15.7885714386161 22.2788571428571  C 15.7942481097341 18.3905721020956  18.9494261472092 15.2422998531299  22.8377142924107 15.2451428604911  C 26.7260024376122 15.2422998531299  29.8811804750873 18.3905721020956  29.8868571462054 22.2788571428571  C 29.8821259487461 26.1678119409833  26.7266709298431 29.3171279438357  22.8377142924107 29.3142857142857  Z " fill-rule="nonzero" fill="#fefeff" stroke="none" transform="matrix(1 0 0 1 45 45 )" />
  </g>
</svg>