<?xml version="1.0" encoding="utf-8"?>
<svg version="1.1" xmlns:xlink="http://www.w3.org/1999/xlink" width="10px" height="7px" xmlns="http://www.w3.org/2000/svg">
  <g transform="matrix(1 0 0 1 -63 -65 )">
    <path d="M 9.6866666796875 0.407749989746094  L 9.6866666796875 0.409499993164063  L 9.60833333984375 0.327249986328126  C 9.41123814882405 0.124024119130411  9.09542852109782 0.124024119130408  8.89833333007812 0.327249986328126  L 4.33666666015625 5.05574999316406  L 1.43500000976562 2.04924999658203  C 1.23790481874592 1.84602412938432  0.922095191019701 1.84602412938432  0.724999999999998 2.04924999658203  L 0.646666660156251 2.12975  C 0.552602593556548 2.2265217646649  0.499595224941221 2.35897581779821  0.499595224941221 2.49724999487305  C 0.499595224941221 2.63552417194788  0.552602593556548 2.7679782250812  0.646666660156248 2.86474998974609  L 3.87333333007812 6.21075000341797  L 3.90166666015625 6.2405  L 3.98 6.32275000683594  C 4.17709519101971 6.52597587403365  4.49290481874592 6.52597587403365  4.69000000976562 6.32275000683594  L 9.6866666796875 1.14275001025391  C 9.78073075541001 1.04597824447267  9.83373812985302 0.913524184698217  9.83373812985302 0.775250000000002  C 9.83373812985302 0.636975815301791  9.78073075541001 0.504521755527329  9.6866666796875 0.407749989746094  Z " fill-rule="nonzero" fill="#269eee" stroke="none" transform="matrix(1 0 0 1 63 65 )" />
  </g>
</svg>