<?xml version="1.0" encoding="utf-8"?>
<svg version="1.1" xmlns:xlink="http://www.w3.org/1999/xlink" width="30px" height="30px" xmlns="http://www.w3.org/2000/svg">
  <g transform="matrix(1 0 0 1 -463 -45 )">
    <path d="M 26.6291935483871 6.16161684782609  L 26.6291935483871 15.294660326087  C 25.53625 14.7054211956522  24.2976612903226 14.4108016304348  22.9860483870968 14.4108016304348  C 18.46875 14.4108016304348  14.8256451612903 18.0935054347826  14.8256451612903 22.6599456521739  C 14.8256451612903 25.6798369565217  16.4285887096774 28.3313315217391  18.8329838709677 29.7306929347826  L 6.08225806451613 29.7306929347826  C 2.87637096774193 29.7306929347826  0.253306451612903 27.0791576086957  0.253306451612903 23.8384239130435  L 0.253306451612903 6.16161684782609  C 0.253306451612903 2.92088315217391  2.87633064516129 0.269347826086958  6.08225806451613 0.269347826086958  L 20.8002822580645 0.269347826086958  C 24.0061693548387 0.269347826086958  26.6291935483871 2.92088315217392  26.6291935483871 6.16161684782609  Z M 5.06221774193548 7.11904891304348  C 5.06217741935484 7.70832880434783  5.49935483870968 8.2238722826087  6.15512096774193 8.2238722826087  L 20.7273790322581 8.2238722826087  C 21.3103225806452 8.2238722826087  21.8203225806452 7.70832880434783  21.8203225806452 7.11904891304348  C 21.8203225806452 6.52985054347826  21.3103225806452 6.01426630434783  20.7273790322581 6  L 6.15512096774193 6  C 5.57221774193548 6.01426630434783  5.06221774193548 6.52985054347826  5.06221774193548 7.11904891304348  Z M 5.06221774193548 12.7903940217391  C 5.06217741935484 13.3796331521739  5.49935483870968 13.8952173913043  6.15512096774193 13.8952173913043  L 14.3156048387097 13.8952173913043  C 14.8984677419355 13.8952173913043  15.4085080645161 13.3796331521739  15.4085080645161 12.7903940217391  C 15.4085080645161 12.2011548913043  14.8985080645161 11.6856114130435  14.3156048387097 11.6856114130435  L 6.15512096774193 11.6856114130435  C 5.57221774193548 11.6856114130435  5.06221774193548 12.2011548913044  5.06221774193548 12.7903940217391  Z M 5.06221774193548 17.8725407608696  C 5.06217741935484 18.4617391304348  5.49935483870968 18.9773233695652  6.15512096774193 18.9773233695652  L 9.79822580645161 18.9773233695652  C 10.3810887096774 18.9773233695652  10.8911290322581 18.4617391304348  10.8911290322581 17.8725407608696  C 10.8911290322581 17.2833016304348  10.3810887096774 16.7677581521739  9.79822580645161 16.7677581521739  L 6.15512096774193 16.7677581521739  C 5.57221774193548 16.7677581521739  5.06221774193548 17.2832608695652  5.06221774193548 17.8725407608696  Z M 5.06221774193548 23.5438043478261  C 4.98935483870968 24.1330027173913  5.49935483870968 24.6486277173913  6.15512096774193 24.6486277173913  L 9.79822580645161 24.6486277173913  C 10.3810887096774 24.6486277173913  10.8911290322581 24.1330434782609  10.8911290322581 23.5438043478261  C 10.8911290322581 22.9546059782609  10.3810887096774 22.4390625  9.79822580645161 22.4390625  L 6.15512096774193 22.4390625  C 5.57221774193548 22.4390625  5.06221774193548 22.9545652173913  5.06221774193548 23.5438043478261  Z M 22.9132258064516 29.7306929347826  C 19.0516129032258 29.7306929347826  15.9185080645161 26.5635733695652  15.9185080645161 22.6599456521739  C 15.9185080645161 18.7563179347826  19.0516129032258 15.5893206521739  22.9132258064516 15.5893206521739  C 26.7749193548387 15.5893206521739  29.9079435483871 18.7563179347826  29.9079435483871 22.6599456521739  C 29.9079435483871 26.5636141304348  26.7749193548387 29.7306929347826  22.9132258064516 29.7306929347826  Z M 23.4232661290323 19.5665625  L 23.4961693548387 19.5665625  C 23.4961693548387 19.1245923913044  23.1318548387097 18.6827038043478  22.621814516129 18.6827038043478  C 22.1846370967742 18.6827038043478  21.7474596774194 19.0509375  21.7474596774194 19.5665625  L 21.7474596774194 23.396535326087  L 24.5161693548387 26.1952989130435  C 24.8804838709677 26.5635733695652  25.3905241935484 26.5635733695652  25.6819758064516 26.1952989130435  C 26.0462903225806 25.8270652173913  26.0462903225806 25.3115217391304  25.6819758064516 25.0168614130435  L 23.4232661290323 22.7336413043478  L 23.4232661290323 19.5665625  Z " fill-rule="nonzero" fill="#fffefc" stroke="none" transform="matrix(1 0 0 1 463 45 )" />
  </g>
</svg>