<?xml version="1.0" encoding="utf-8"?>
<svg version="1.1" xmlns:xlink="http://www.w3.org/1999/xlink" width="28px" height="30px" xmlns="http://www.w3.org/2000/svg">
  <g transform="matrix(1 0 0 1 -882 -45 )">
    <path d="M 26.608602648738 2.11740280657181  L 26.5996346138822 2.11740280657181  C 26.0480274718829 1.24863395791288  25.1843412684502 0.58816813087353  24.1603334239784 0.252055101138133  C 23.4831528544095 0.0508025164391377  22.7714181707928 -0.0311034425262382  22.0618169591346 0  L 4.80734824819711 0  C 4.77887886417747 -0.00155764579744568  4.74613744141147 -0.00155764579744527  4.71766805739183 0.0105592074938155  C 4.5321099293844 0.0565394436805279  4.3494736697933 0.112142982509431  4.17061890925481 0.177108109764679  C 3.50252358140174 0.345000196663311  2.8874827080037 0.65911031266545  2.37701509314904 1.09312707225443  L 2.26043082932692 1.17640152338986  C 1.76751478056817 1.57029487370444  1.37276506504522 2.05903255440611  1.10355638371394 2.60872208291929  C 1.09050746294288 2.63515793577722  1.09050746294288 2.6655606811968  1.10355638371394 2.69199653405472  L 1.10355638371394 2.75028863520109  C 0.868211889986635 3.27815012245498  0.749281909399682 3.84448325785659  1 4.41577765790973  L 1 25.6091254865256  C 0.749281909399682 26.1804198865787  0.868211889986634 26.7467530219804  1.10355638371394 27.2746145092342  L 1.10355638371394 27.3245791799155  C 1.11660530448501 27.3510150327734  1.116605304485 27.381417778193  1.10355638371394 27.4078536310509  C 1.36189528873336 27.9476461745143  1.74096633734241 28.4302192731134  2.21559074969952 28.8235193003533  L 2.33217498197115 28.9067937514887  C 2.845985800241 29.336462520538  3.45984762594786 29.6499704801257  4.12577879807692 29.8228127139785  C 4.31637284124494 29.8743926587128  4.51140261491327 29.9106124726306  4.70870005408654 29.931069515103  C 4.73716943810618 29.9189526618117  4.76991086087218 29.9189526618117  4.79838024489183 29.931069515103  L 4.88806043569712 29.931069515103  C 4.98244186688627 29.9659221042048  5.08251366573557 29.9856332094144  5.18400504957933 30  L 22.0618169591346 30  C 22.771424535407 30.0312211765993  23.4831984484783 29.9493107031341  24.1603334239784 29.747865722605  C 24.8162410945049 29.5280328984002  25.4129119777461 29.1785542857038  25.9090971604567 28.7235899589908  C 26.1906060418538 28.4841394347011  26.4270321068095 28.2026798732948  26.608602648738 27.8908454476364  C 27.0506567927018 27.2037003345869  27.28315275743 26.4178640713683  27 25.6174529462876  L 27 4.47406978835297  C 27.2631703695761 3.64987420815367  27.0325189431785 2.84171563376514  26.608602648738 2.11740280657181  Z M 5.04051674429087 13.0596656857676  L 5.07638882061298 13.0513382553025  C 5.08127156121592 12.4415430686767  5.61243277272314 11.9483220133298  6.26913537409856 12  L 16.3222847475962 12  C 16.9789873489716 11.9483220133298  17.5101485604788 12.4415430686767  17.5150313010817 13.0513382553025  C 17.5055378464771 13.6607065536442  16.978438101714 14.1538363139112  16.3222847475962 14.1672159005172  L 6.23326329777644 14.1672159005172  C 6.23026259699014 14.1672370905607  6.2272618202792 14.1672476856973  6.22426103272197 14.1672476856973  C 5.57047820970544 14.1672476856973  5.04048251409217 13.6751088949563  5.04048251409217 13.0680249307096  C 5.04048251409217 13.065238485514  5.04049392424088 13.0624520503902  5.04051674429087 13.0596656857676  Z M 22.5909301006611 18.4558501193436  L 22.5819620658053 18.4391952291165  L 15.4075468013822 24.8263456458525  C 14.9185804932062 25.2609659069973  14.1477494046304 25.2609659069973  13.6587830964543 24.8263456458525  L 9.72182270432693 21.3121638079373  C 9.4867299877346 21.1104003456118  9.35305082311536 20.8266440167991  9.35305082311536 20.5293839672643  C 9.35305082311536 20.2321239177294  9.4867299877346 19.9483675889167  9.72182270432693 19.7466041265912  C 10.2240317760417 19.302473727976  11.0132174487179 19.302473727976  11.5154265204327 19.7466041265912  L 14.5735210426683 22.4946610140605  L 20.8511343990385 16.8902904379974  C 21.3533434707532 16.4461600393823  22.1425291434295 16.4461600393823  22.6447382151442 16.8902904379974  C 22.8521788736831 17.0956027008282  22.9676345505577 17.3665633073591  22.9676345505577 17.6480893549382  C 22.9676345505577 17.9541050100697  22.8312820882868 18.2464832104937  22.5909301006611 18.4558501193436  Z M 21.7389682722356 6  C 22.3956708614191 5.89426943022907  22.926832067966 6.38749046792333  22.9317148257212 6.99728564310812  C 22.9268320851182 7.60708082973393  22.395670873611 8.10030188508082  21.7389682722356 8.10483585785781  L 6.23326329777644 8.10483585785781  C 5.57433357688706 8.10483587250624  5.0403227553048 7.60896875103463  5.0403227553048 6.99728565775656  C 5.0403227553048 6.38560256447849  5.57433357688706 5.88973544300688  6.23306930879038 5.88973544300688  C 6.23313397178628 5.88973544300688  6.2331986347814 5.88973544788969  6.23326329777644 6  L 21.7389682722356 6  Z " fill-rule="nonzero" fill="#fffafa" stroke="none" transform="matrix(1 0 0 1 882 45 )" />
  </g>
</svg>