<?xml version="1.0" encoding="utf-8"?>
<svg version="1.1" xmlns:xlink="http://www.w3.org/1999/xlink" width="30px" height="30px" xmlns="http://www.w3.org/2000/svg">
  <g transform="matrix(1 0 0 1 -1299 -45 )">
    <path d="M 23.818951775046 17.57007374483  L 14.7309965245864 26.7525437298943  L 14.7309965245864 29.8897058823529  L 17.8717938591452 29.8897058823529  L 26.9561139275046 20.7108710793888  L 23.818951775046 17.57007374483  Z M 25.7019761029412 4.47251263786765  C 25.698340920841 2.06238690544577  23.7462481330423 0.110294117647059  21.3361224006204 0.110294117647059  L 4.77059757008272 0.110294117647059  C 2.36410701976103 0.110294117647059  0.408379049862132 2.06238690544577  1 4.47251263786765  L 1 25.5274873621324  C 0.408379049862132 27.933977912454  2.36410701976103 29.8897058823529  4.77059757008272 29.8897058823529  L 10.7977294921875 29.8897058823529  L 10.7977294921875 25.9818851246553  L 25.7019761029412 10.7359313964844  L 25.7019761029412 4.47251263786765  Z M 15.3635182100184 17.37377391142  C 15.3635182100184 18.3661786247702  14.5601429658778 19.1695538689108  13.5677382525276 19.1695538689108  L 8.15495210535386 19.1695538689108  C 7.16254739200368 19.1695538689108  6.35917214786305 18.3661786247702  6.35917214786305 17.37377391142  C 6.35917214786305 16.3813691980699  7.16254739200368 15.5779939539292  8.15495210535386 15.5779939539292  L 13.5677382525276 15.5779939539292  C 14.5601429658778 15.5779939539292  15.3635182100184 16.3813691980699  15.3635182100184 17.37377391142  Z M 19.0023354923024 10.154302260455  C 19.0023354923024 11.1467069738051  18.1989602481618 11.9500822179458  17.2065555348116 11.9500822179458  L 8.15495210535386 11.9500822179458  C 7.16254739200368 11.9500822179458  6.35917214786305 11.1467069738051  6.35917214786305 10.154302260455  C 6.35917214786305 9.16189754710478  7.16254739200368 8.35852230296415  8.15495210535386 8.35852230296415  L 17.2065555348116 8.35852230296415  C 18.1989602481618 8.35852230296415  19.0023354923024 9.16189754710478  19.0023354923024 10.154302260455  Z M 29.3444285673254 17.1520278033088  L 27.4614042394301 15.2653682933134  C 27.3087265912224 15.1054202809053  27.101521211512 15.0218110926011  26.8797751034007 15.0218110926011  C 26.6616641773897 15.0218110926011  26.450823615579 15.1126906451057  26.2981459673713 15.2653682933134  L 24.807721306296 16.7557929543888  L 27.9448834587546 19.8929551068474  L 29.3444285673254 18.3152860753676  C 29.5043765797335 18.1626084271599  29.5879857680377 17.9517678653493  29.5879857680377 17.7336569393382  C 29.5879857680377 17.5155460133272  29.4971062155331 17.3047054515165  29.3444285673254 17.1520278033088  Z " fill-rule="nonzero" fill="#ffffff" stroke="none" transform="matrix(1 0 0 1 1299 45 )" />
  </g>
</svg>