<?xml version="1.0" encoding="utf-8"?>
<svg version="1.1" xmlns:xlink="http://www.w3.org/1999/xlink" width="30px" height="30px" xmlns="http://www.w3.org/2000/svg">
  <g transform="matrix(1 0 0 1 -160 -779 )">
    <path d="M 29.8348623853211 2.2768  C 29.8253625832472 1.04849578770511  28.8324660857767 0.0597670039276959  27.6154128440367 0  L 10.5039853211009 0  C 9.2867273778173 0.0597681042120366  8.29374574514654 1.04882027914329  8.28453577981651 2.27733333333333  L 8.28453577981651 7.93742222222222  L 2.61666055045872 7.93742222222222  C 1.31429026204935 7.93022800593035  0.251993722460239 8.98852152402246  0.242201834862386 10.3029333333333  L 0.242201834862386 27.5688888888889  C 0.252573292083797 28.8828830219116  1.31469962550128 29.9405298413116  2.61666055045872 29.9333333333333  L 11.1294825688073 29.9333333333333  C 11.1805288719076 29.9322270916393  11.2314126001595 29.9271153796555  11.2816733944954 30  L 27.6154128440367 30  C 28.8323978650281 29.9249444894967  29.8252659927639 28.9363234850499  29.8348623853211 27.7080888888889  L 29.8348623853211 2.2768  Z M 2.61666055045872 27.9768888888889  C 2.39187828536854 27.9780749611129  2.20838568161818 27.7957434538471  2.2060623853211 27.5688888888889  L 2.2060623853211 10.3029333333333  C 2.20790382994594 10.0757306215147  2.39153778910907 9.8928611108842  2.61666055045872 9.89404444444445  L 8.28541651376147 9.89404444444445  L 8.28541651376147 27.7073777777778  C 8.28577978342936 27.7974953194105  8.29166256238637 27.8875040162597  8.30303119266055 27.9768888888889  L 2.61666055045872 27.9768888888889  Z M 27.8706495412844 27.7084444444444  C 27.8696798160184 27.8496910688742  27.7555409557511 27.9634547796749  27.6155889908257 28  L 10.5039853211009 28  C 10.3640333561755 27.9634547796749  10.2498944959082 27.8496910688742  10.2489247706422 27.7084444444444  L 10.2489247706422 2.2768  C 10.2497978138486 2.13545536888784  10.3639363742078 2.02153284734251  10.5039853211009 2  L 27.6154128440367 2  C 27.7553648089621 2.02143410921394  27.8695036692294 2.13519782001473  27.8704733944954 2.27644444444444  L 27.8704733944954 27.7080888888889  Z " fill-rule="nonzero" fill="#17b3a3" stroke="none" transform="matrix(1 0 0 1 160 779 )" />
  </g>
</svg>