<?xml version="1.0" encoding="utf-8"?>
<svg version="1.1" xmlns:xlink="http://www.w3.org/1999/xlink" width="14px" height="14px" xmlns="http://www.w3.org/2000/svg">
  <g transform="matrix(1 0 0 1 -172 -787 )">
    <path d="M 12.8142419414802 2.03021538461539  C 12.8098960483132 2.03021538461539  12.8055502044704 2.0301866660148  12.8012047058824 2  L 1.07028078431373 2  C 1.06593528572582 2.0301866660148  1.06158944188284 2.03021538461539  1.05724354871592 2.03021538461539  C 0.522905670849826 2.03021538461539  0.0897392349904303 1.60537907252252  0.0897392349904303 1.08131692307692  C 0.0897392349904303 0.55725477363133  0.522905670849826 0.132418461538462  1.05724354871592 0.132418461538462  C 1.06158944188284 0.132418461538462  1.06593528572582 0.132447180139045  1.07028078431372 0.132504615384615  L 12.8012047058824 0.132504615384615  C 12.8055502044704 0.132447180139045  12.8098960483132 0.132418461538462  12.8142419414802 0.132418461538462  C 13.3485798193463 0.132418461538462  13.7817462552056 0.55725477363133  13.7817462552056 1.08131692307692  C 13.7817462552056 1.60537907252252  13.3485798193463 2.03021538461539  12.8142419414802 2.03021538461539  Z M 12.8142419414801 8.02324923076923  C 12.8098960483132 8.02324923076923  12.8055502044703 8.02322051216865  12.8012047058824 8  L 1.07028078431373 8  C 1.0659352857258 8.02322051216865  1.06158944188292 8.02324923076923  1.05724354871598 8.02324923076923  C 0.522905670849887 8.02324923076923  0.0897392349904927 7.59841291867636  0.0897392349904927 7.07435076923077  C 0.0897392349904927 6.55028861978518  0.522905670849887 6.12545230769231  1.05724354871598 6.12545230769231  C 1.06158944188292 6.12545230769231  1.0659352857258 6.12548102629289  1.07028078431372 6.12553846153846  L 12.8012047058824 6.12553846153846  C 12.8055502044703 6.12548102629289  12.8098960483132 6.12545230769231  12.8142419414801 6.12545230769231  C 13.3485798193462 6.12545230769231  13.7817462552056 6.55028861978518  13.7817462552056 7.07435076923077  C 13.7817462552056 7.59841291867636  13.3485798193462 8.02324923076923  12.8142419414801 8.02324923076923  Z M 9.28892115716637 13.8677538461538  C 9.28457526399943 13.8677538461538  9.28022942015656 13.8677251275533  9.27588392156862 13.8676676923077  L 1.07028078431373 13.8676676923077  C 1.0659352857258 13.8677251275533  1.06158944188292 13.8677538461538  1.05724354871598 13.8677538461538  C 0.522905670849887 13.8677538461538  0.0897392349904927 13.442917534061  0.0897392349904927 12.9188553846154  C 0.0897392349904927 12.3947932351698  0.522905670849887 11.9699569230769  1.05724354871598 11.9699569230769  C 1.06158944188292 11.9699569230769  1.0659352857258 11.9699856416775  1.07028078431372 11.9700430769231  L 9.27588392156862 11.9700430769231  C 9.28022942015656 11.9699856416775  9.28457526399943 11.9699569230769  9.28892115716637 11.9699569230769  C 9.82325903503247 11.9699569230769  10.2564254708919 12.3947932351698  10.2564254708919 12.9188553846154  C 10.2564254708919 13.442917534061  9.82325903503247 13.8677538461538  9.28892115716637 13.8677538461538  Z " fill-rule="nonzero" fill="#fd9a16" stroke="none" transform="matrix(1 0 0 1 172 787 )" />
  </g>
</svg>