<?xml version="1.0" encoding="utf-8"?>
<svg version="1.1" xmlns:xlink="http://www.w3.org/1999/xlink" width="12px" height="8px" xmlns="http://www.w3.org/2000/svg">
  <g transform="matrix(1 0 0 1 -81 -801 )">
    <path d="M 5.8628452173913 7.42193548387097  C 5.54075157114947 7.73930686259348  5.10434805210951 7.91701779366628  4.64973913043478 7.91593290322581  C 4.19208367754497 7.91669933278146  3.75316718771058 7.73618046064778  3.43095652173913 7.41466838709677  L 0.495193043478261 4.49131354838709  C 0.117068056987962 4.11413575163019  0.117068056987966 3.5059106999827  0.495193043478261 3.12873290322581  C 0.676029684363323 2.9478210124382  0.92252541226892 2.84601425424644  1.1797147826087 2.84601425424644  C 1.43690415294848 2.84601425424644  1.68339988085407 2.9478210124382  1.86423652173913 3.1287329032258  L 4.65140869565218 5.90344258064516  L 10.2356034782609 0.401919999999993  C 10.4162402510415 0.223382285145597  10.6611412203141 0.123094005989955  10.9164881914733 0.123094005989955  C 11.1754193319134 0.123094005989955  11.4234491999073 0.226209210133565  11.6046469565217 0.409187096774193  C 11.9804209916446 0.788615369268776  11.9771436570227 1.39665544932431  11.5973008695652 1.77209806451612  L 5.8628452173913 7.42193548387097  Z " fill-rule="nonzero" fill="#fd9a16" stroke="none" transform="matrix(1 0 0 1 81 801 )" />
  </g>
</svg>