<?xml version="1.0" encoding="utf-8"?>
<svg version="1.1" xmlns:xlink="http://www.w3.org/1999/xlink" width="27px" height="30px" xmlns="http://www.w3.org/2000/svg">
  <g transform="matrix(1 0 0 1 -67 -779 )">
    <path d="M 13.9776666211555 29.9145448087543  C 13.9700468680875 29.9145448087543  13.9624273637131 29.914458438294  13.9548096 30  L 3.54672 30  C 1.69824996180785 29.9142904308346  0.198592406266087 28.4299092102351  0.1944 26.5961142857143  L 0.1944 3.5748  C 0.198306987109402 1.74080414386303  1.69804804849663 0.25611018995842  3.54672 0.256114285714285  L 23.62608 0.256114285714285  C 25.4747519515034 0.256110189958416  26.9744930128906 1.74080414386302  27 3.5748  L 27 18.5276571428571  C 26.9784 18.5276571428571  26.9784 18.5276571428571  26.9784 18.5276571428571  C 26.9784 19.0767859798318  26.5296818676704 19.5219428571429  25.97616 19.5219428571429  C 25.4226381323296 19.5219428571429  24.97392 19.0767859798318  25 18.5276571428571  L 25 3.5748  C 24.9721098573595 2.8375887044228  24.3691911906027 2.24091209854745  23.62608 2.24091428571429  L 3.54672 2.24091428571428  C 2.80360880939728 2.24091209854745  2.20069014264051 2.8375887044228  2.19888 3.5748  L 2.19888 26.5961142857143  C 2.20069014264051 27.3333255812915  2.80360880939728 27.9300021871668  3.54672 28  L 13.9549824 28  C 13.9625425917036 27.9298298779716  13.9701044848822 27.9297448087543  13.9776666211555 27.9297448087543  C 14.5301387059735 27.9297448087543  14.9780058211555 28.3740574230222  14.9780058211555 28.9221448087543  C 14.9780058211555 29.4702321944863  14.5301387059735 29.9145448087543  13.9776666211555 29.9145448087543  Z M 19.16784 8.03091428571429  C 19.16784 8.03091428571429  19.16784 8.03091428571429  19.16784 8  L 7.0460928 8  C 7.0460928 8.03091428571429  7.0460928 8.03091428571429  7.0460928 8.03091428571429  C 6.49362071518207 8.03091428571429  6.0457536 7.58660167144637  6.0457536 7.03851428571429  C 6.0457536 6.49042689998221  6.49362071518207 6.04611428571429  7.0460928 6.04611428571429  C 7.0460928 6.04611428571429  7.0460928 6.04611428571429  7.0460928 6  L 19.16784 6  C 19.16784 6.04611428571429  19.16784 6.04611428571429  19.16784 6.04611428571429  C 19.7203120848179 6.04611428571429  20.1681792 6.49042689998221  20.1681792 7.03851428571429  C 20.1681792 7.58660167144637  19.7203120848179 8.03091428571429  19.16784 8.03091428571429  Z M 19.16784 14.0490857142857  L 19.16784 14  L 7.0460928 14  C 7.0460928 14.0489142857143  7.0460928 14.0489142857143  7.0460928 14.0489142857143  C 6.49362071518207 14.0489142857143  6.0457536 13.6046016714464  6.0457536 13.0565142857143  C 6.0457536 12.5084268999822  6.49362071518207 12.0641142857143  7.0460928 12.0641142857143  C 7.0460928 12.0641142857143  7.0460928 12.0641142857143  7.0460928 12  L 19.16784 12  C 19.16784 12.0641142857143  19.16784 12.0641142857143  19.16784 12.0641142857143  C 19.7203598022203 12.0641142857143  20.1682656 12.5084652755751  20.1682656 13.0566  C 20.1682656 13.6047347244249  19.7203598022203 14.0490857142857  19.16784 14.0490857142857  Z M 14.9352768 19.9986857142857  L 14.93424 19.9985142857143  L 7.0460928 19.9985142857143  C 7.04171060766246 19.9985714279545  7.03732808411645 19.9986  7.03294551325319 19.9986  C 6.48047342843526 19.9986  6.03260631325319 19.5542873857321  6.03260631325319 19.0062  C 6.03260631325319 18.4581126142679  6.48047342843526 18.0138  7.03294551325319 18.0138  C 7.03732808411645 18.0138  7.04171060766246 18.0138285720455  7.0460928 18.0138857142857  L 14.9352768 18.0138857142857  C 15.4877488848179 18.0138857142857  15.935616 18.4581983285536  15.935616 19.0062857142857  C 15.935616 19.5543731000178  15.4877488848179 19.9986857142857  14.9352768 19.9986857142857  Z " fill-rule="nonzero" fill="#17b3a3" stroke="none" transform="matrix(1 0 0 1 67 779 )" />
  </g>
</svg>