<?xml version="1.0" encoding="utf-8"?>
<svg version="1.1" xmlns:xlink="http://www.w3.org/1999/xlink" width="19px" height="20px" xmlns="http://www.w3.org/2000/svg">
  <g transform="matrix(1 0 0 1 -264 -784 )">
    <path d="M 4.3144563048423 1.20968648648649  C 4.3144563048423 1.74189020965229  3.8849513637898 2.17530347724749  3.35051428571429 2.1824  L 1.19402514285714 2.1824  C 0.659588064781627 2.17530347724749  0.230083123729126 1.74189020965229  0.230083123729126 1.20968648648649  C 0.230083123729126 0.677482763320685  0.659588064781627 0.244069495725479  1.19402514285714 0.236972972972973  L 3.35051428571429 0.236972972972973  C 3.8849513637898 0.244069495725479  4.3144563048423 0.677482763320685  4.3144563048423 1.20968648648649  Z M 18.0208594285714 2.1824  L 6.9464 2.1824  C 6.41196292192448 2.17530347724749  5.98245798087198 1.74189020965229  5.98245798087198 1.20968648648649  C 5.98245798087198 0.677482763320685  6.41196292192448 0.244069495725479  6.9464 0.236972972972973  L 18.0210331428571 0.236972972972973  C 18.5556098719251 0.243879480918877  18.9853272251 0.677350831458673  18.9853272251 1.20969109817553  C 18.9853272251 1.74176188176673  18.5560290474664 2.17511855956804  18.021728 2.1824  Z M 4.3144563048423 7.26201081081081  C 4.3144563048423 7.79421453397661  3.8849513637898 8.22762780157181  3.35051428571429 8.23472432432432  L 1.19402514285714 8.23472432432432  C 0.659588064781627 8.22762780157181  0.230083123729126 7.79421453397661  0.230083123729126 7.26201081081081  C 0.230083123729126 6.72980708764501  0.659588064781627 6.2963938200498  1.19402514285714 6.2892972972973  L 3.35051428571429 6.2892972972973  C 3.8849513637898 6.2963938200498  4.3144563048423 6.72980708764501  4.3144563048423 7.26201081081081  Z M 18.0208594285714 8.23472432432432  L 6.9464 8.23472432432432  C 6.41196292192448 8.22762780157181  5.98245798087198 7.79421453397661  5.98245798087198 7.26201081081081  C 5.98245798087198 6.72980708764501  6.41196292192448 6.2963938200498  6.9464 6.2892972972973  L 18.0210331428571 6.2892972972973  C 18.5556098719251 6.2962038052432  18.9853272251 6.729675155783  18.9853272251 7.26201542249986  C 18.9853272251 7.79408620609106  18.5560290474664 8.22744288389236  18.021728 8.23472432432432  Z M 4.3144563048423 12.9901837837838  C 4.3144563048423 13.5223875069496  3.8849513637898 13.9558007745448  3.35051428571429 13.9628972972973  L 1.19402514285714 13.9628972972973  C 0.659588064781625 13.9558007745448  0.230083123729126 13.5223875069496  0.230083123729126 12.9901837837838  C 0.230083123729126 12.457980060618  0.659588064781627 12.0245667930228  1.19402514285714 12.0174702702703  L 3.35051428571429 12.0174702702703  C 3.8849513637898 12.0245667930228  4.3144563048423 12.457980060618  4.3144563048423 12.9901837837838  Z M 3.35051428571429 19.8266810810811  L 1.19402514285714 19.8266810810811  C 0.659588064781575 19.8195845583286  0.230083123728996 19.3861712907334  0.230083123728996 18.8539675675676  C 0.230083123728996 18.3217638444017  0.659588064781575 17.8883505768065  1.19402514285714 17.8812540540541  L 3.35051428571429 17.881254054054  C 3.87974370366465 17.8953116121884  4.30143091850714 18.3265496697371  4.30143091850714 18.8537081081081  C 4.30143091850714 19.3808665464791  3.87974370366465 19.8121046040279  3.35051428571429 19.8261621621622  Z M 18.021728 13.9628972972973  L 18.0208594285714 14  L 6.9464 14  C 6.41196292192448 13.9558007745448  5.98245798087198 13.5223875069496  5.98245798087198 12.9901837837838  C 5.98245798087198 12.457980060618  6.41196292192448 12.0245667930228  6.9464 12  L 18.0210331428571 12  C 18.5556098719251 12.0243767782162  18.9853272251 12.457848128756  18.9853272251 12.9901883954728  C 18.9853272251 13.522259179064  18.5560290474664 13.9556158568653  18.021728 13.9628972972973  Z M 18.0208594285714 19.6910702702703  L 6.9464 19.6910702702703  C 6.41196292192443 19.6839737475178  5.98245798087185 19.2505604799226  5.98245798087185 18.7183567567568  C 5.98245798087185 18.1861530335909  6.41196292192443 17.7527397659957  6.9464 17.7456432432432  L 18.0210331428571 17.7456432432432  C 18.5556098719251 17.7525497511891  18.9853272251002 18.1860211017289  18.9853272251002 18.7183613684458  C 18.9853272251002 19.250432152037  18.5560290474664 19.6837888298384  18.021728 19.6910702702703  Z " fill-rule="nonzero" fill="#fd9a16" stroke="none" transform="matrix(1 0 0 1 264 784 )" />
  </g>
</svg>