<?xml version="1.0" encoding="utf-8"?>
<svg version="1.1" xmlns:xlink="http://www.w3.org/1999/xlink" width="27px" height="30px" xmlns="http://www.w3.org/2000/svg">
  <g transform="matrix(1 0 0 1 -260 -779 )">
    <path d="M 26.8056 27.1476  C 26.8026469275235 28.6758554763204  25.5534633135798 29.9134379147302  24.0129792 30  L 2.9871936 30  C 1.44668136815497 29.9134381355907  0.197448207773546 28.6758831875132  0.1944 27.1476  L 0.1944 3.02417142857143  C 0.19725792953419 1.49575430952526  1.44654673037721 0.257990872263599  2.9871936 0.257142857142857  L 24.0129792 0.257142857142858  C 25.5535979613843 0.257991081497658  26.8028372223544 1.49578202241398  26.8056 3.02417142857143  L 26.8056 27.1476  Z M 2.9871936 2.172  C 2.51283277308276 2.17228277993287  2.128198165296 2.55340462524676  2.1273408 3.024  L 2.1273408 27.1474285714286  C 2.12810315686747 27.6180631152582  2.51279340531161 27.9992400930786  2.9871936 28  L 24.0129792 28  C 24.4873400269172 27.9991457914957  24.871974634704 27.6180239461818  24.872832 27.1474285714286  L 24.872832 3.02417142857143  C 24.871974634704 2.55357605381819  24.4873400269172 2.1724542085043  24.0129792 2.17217142857143  L 2.9871936 2.17217142857143  Z " fill-rule="nonzero" fill="#17b3a3" stroke="none" transform="matrix(1 0 0 1 260 779 )" />
  </g>
</svg>