<?xml version="1.0" encoding="utf-8"?>
<!-- Generator: Adobe Illustrator 24.0.0, SVG Export Plug-In . SVG Version: 6.00 Build 0)  -->
<svg version="1.1" id="图层_1" xmlns="http://www.w3.org/2000/svg" xmlns:xlink="http://www.w3.org/1999/xlink" x="0px" y="0px"
	 viewBox="0 0 200 200" style="enable-background:new 0 0 200 200;" xml:space="preserve">
<style type="text/css">
	.st0{fill:#17B3A3;}
	.st1{fill:#FD9A16;}
</style>
<path class="st0" d="M81.5,184.8H31.3c-4.4,0-8.7-4.3-8.7-8.7V23.9c0-4.4,4.3-8.7,8.7-8.7h127.3c4.4,0,8.7,4.3,8.7,8.7V100
	c-0.1,4.1,3.1,7.5,7.2,7.6c0.1,0,0.3,0,0.4,0c4.1,0.1,7.5-3.1,7.6-7.2c0-0.1,0-0.2,0-0.4V23.9c0-13-10.9-23.9-23.9-23.9H31.3
	C18.3,0,7.4,10.8,7.4,23.9v152.2c0,13,10.9,23.9,23.9,23.9h50.1c4.1,0.1,7.5-3.1,7.6-7.2c0-0.1,0-0.2,0-0.4c0.1-4.1-3.1-7.5-7.2-7.6
	C81.7,184.8,81.6,184.8,81.5,184.8L81.5,184.8z"/>
<path class="st0" d="M93.5,125H49.4c-3.2-0.1-5.9,3.1-6,7.2c0,0.1,0,0.2,0,0.4c-0.1,4.1,2.5,7.5,5.7,7.6c0.1,0,0.2,0,0.3,0h44.1
	c3.2,0.1,5.9-3.1,6-7.2c0-0.1,0-0.2,0-0.4c0.1-4.1-2.5-7.5-5.7-7.6C93.7,125,93.6,125,93.5,125z"/>
<path class="st0" d="M49.4,96.7H136c3.2,0.1,5.9-3.1,6-7.2c0-0.1,0-0.2,0-0.4c0.1-4.1-2.5-7.5-5.7-7.6c-0.1,0-0.2,0-0.3,0H49.4
	c-3.2-0.1-5.9,3.1-6,7.2c0,0.1,0,0.2,0,0.4c-0.1,4.1,2.5,7.5,5.7,7.6C49.2,96.7,49.3,96.7,49.4,96.7z"/>
<path class="st0" d="M49.4,53.3H136c3.2,0.1,5.9-3.1,6-7.2c0-0.1,0-0.2,0-0.4c0.1-4.1-2.5-7.5-5.7-7.6c-0.1,0-0.2,0-0.3,0H49.4
	c-3.2-0.1-5.9,3.1-6,7.2c0,0.1,0,0.2,0,0.4c-0.1,4.1,2.5,7.5,5.7,7.6C49.2,53.3,49.3,53.3,49.4,53.3z"/>
<g>
	<path class="st1" d="M160.8,160.5h-10.9v-17.6c0-3-2.4-5.5-5.5-5.5c-3,0-5.5,2.4-5.5,5.5v23.1c0,3,2.4,5.5,5.5,5.5h16.3
		c3,0,5.5-2.4,5.5-5.5C166.2,162.9,163.8,160.5,160.8,160.5L160.8,160.5z"/>
	<path class="st1" d="M148.9,114.2L148.9,114.2c-23.7,0-42.9,19.2-42.9,42.9s19.2,42.9,42.9,42.9c23.7,0,42.9-19.2,42.9-42.9
		S172.6,114.2,148.9,114.2z M148.9,189.1L148.9,189.1c-17.6,0-32-14.3-32-32c0-17.6,14.3-32,32-32s32,14.3,32,32
		C180.9,174.8,166.5,189.1,148.9,189.1z"/>
</g>
</svg>
