<?xml version="1.0" encoding="utf-8"?>
<!-- Generator: Adobe Illustrator 24.0.0, SVG Export Plug-In . SVG Version: 6.00 Build 0)  -->
<svg version="1.1" id="图层_1" xmlns="http://www.w3.org/2000/svg" xmlns:xlink="http://www.w3.org/1999/xlink" x="0px" y="0px"
	 viewBox="0 0 200 200" style="enable-background:new 0 0 200 200;" xml:space="preserve">
<style type="text/css">
	.st0{fill:#17B3A3;}
	.st1{fill:#FD9A16;}
	.st2{fill:#FD9A16;stroke:#FD9A16;stroke-width:4;stroke-miterlimit:10;}
</style>
<path class="st0" d="M163.4,0H30.1c-11.1,0-20,8.9-20,20v160c0,11.1,8.9,20,20,20h133.3c11.1,0,20-8.9,20-20V20
	C183.4,8.9,174.5,0,163.4,0L163.4,0z M56.7,13.3h80v20h-80C56.7,33.3,56.7,13.3,56.7,13.3z M170.1,180c0,3.6-2.9,6.6-6.5,6.7h-0.1
	H30.1c-3.6,0-6.6-2.9-6.7-6.5v-0.1V20c0-3.6,2.9-6.6,6.5-6.7H30h13.3v20c0,7.3,6,13.3,13.3,13.3h80c7.3,0,13.3-6,13.3-13.3v-20h13.3
	c3.6,0,6.6,2.9,6.7,6.5v0.1L170.1,180L170.1,180z"/>
<path class="st1" d="M100,133.1c-10.2,0-18.1-7.8-18.1-18.1s7.8-18.1,18.1-18.1s18.1,7.8,18.1,18.1S110.2,133.1,100,133.1z M100,103
	c-6.6,0-12,5.4-12,12s5.4,12,12,12s12-5.4,12-12S106.6,103,100,103z"/>
<path class="st2" d="M112,163.1H88c-1.8,0-3-1.2-3-3v-11.4c-2.4-1.2-4.8-2.4-6.6-3.6l-9.6,6.1c-1.2,0.6-3,0.6-4.2-1.2l-12-21.1
	c-1.2-1.8-0.6-3.6,1.2-4.2l9.6-6.1v-7.2l-9.6-6.1c-1.8-0.6-2.4-2.4-1.2-4.2l12-21.1c0.6-1.2,2.4-1.8,4.2-0.6l9.6,6.1
	c1.8-1.2,4.2-3,6.6-3.6V69.9c0-1.8,1.2-3,3-3h24c1.8,0,3,1.2,3,3v11.4c2.4,1.2,4.8,2.4,6.6,3.6l9.6-6.1c1.2-0.6,3-0.6,4.2,1.2
	l12,21.1c1.2,1.8,0.6,3.6-1.2,4.2l-9.6,6.1v7.2l9.6,6.1c1.2,0.6,1.8,2.4,1.2,4.2l-12,21.1c-0.6,1.2-2.4,1.8-4.2,1.2l-9.6-6.1
	c-1.8,1.2-4.2,3-6.6,3.6v11.4C115,161.9,113.8,163.1,112,163.1z M91,157.1H109v-10.2c0-1.2,0.6-2.4,1.8-3c3-1.2,6.1-3,8.5-4.8
	c1.2-0.6,2.4-0.6,3.6,0l9,5.4l9-15.7l-9-5.4c-1.2-1.2-1.8-2.4-1.2-3.6c0-1.8,0.6-3,0.6-4.8s0-3-0.6-4.8c0-1.2,0.6-2.4,1.2-3l9-5.4
	l-9-15.7l-9,5.4c-1.2,0.6-2.4,0.6-3.6,0c-2.4-1.8-5.4-3.6-8.5-4.8c-1.2-1.2-1.8-2.4-1.8-3.6V72.9H91v10.2c0,1.2-0.6,2.4-1.8,3
	c-3,1.2-6.1,3-8.5,4.8c-1.2,0.6-2.4,0.6-3.6,0l-9-4.8l-8.9,15.7l9,5.4c1.2,0.6,1.8,1.8,1.2,3c0,1.8-0.6,3-0.6,4.8s0,3,0.6,4.8
	c0.6,1.2,0,2.4-1.2,3l-9,5.6l9,15.7l9-5.4c1.2-0.6,2.4-0.6,3.6,0c2.4,1.8,5.4,3.6,8.5,4.8c1.2,0.6,1.8,1.8,1.8,3v10.8H91z"/>
</svg>
