<?xml version="1.0" encoding="utf-8"?>
<!-- Generator: Adobe Illustrator 24.0.0, SVG Export Plug-In . SVG Version: 6.00 Build 0)  -->
<svg version="1.1" id="图层_1" xmlns="http://www.w3.org/2000/svg" xmlns:xlink="http://www.w3.org/1999/xlink" x="0px" y="0px"
	 viewBox="0 0 200 200" style="enable-background:new 0 0 200 200;" xml:space="preserve">
<path d="M154.4,124.3C154.4,124.3,154.4,123.9,154.4,124.3v-3.5l6.5-6.5c-1.3-4.8-3.5-9.1-6.1-12.6l-9.1,0.9l-2.6-2.6v-9.1
	c-3.9-2.2-8.7-3.9-13.5-4.8l-5.7,7h-3.9l-6.5-6.5c-4.8,1.3-9.1,3.5-12.6,6.1l0.9,9.1l-2.6,2.6h-9.1c-2.2,3.9-3.9,8.7-4.8,13.5l7,5.7
	v3.9l-6.5,6.5c1.3,4.8,3.5,9.1,6.1,12.6l9.1-0.9l2.6,2.6v9.1c3.9,2.2,8.7,3.9,13.5,4.8l5.7-7h3.9l6.5,6.5c4.8-1.3,9.1-3.5,12.6-6.1
	l-0.9-9.1l2.6-2.6h9.1c2.2-3.9,3.9-8.7,4.8-13.5L154.4,124.3L154.4,124.3z M123.6,140c-8.7,0-16.1-7-16.1-16.1
	c0-8.7,7-16.1,16.1-16.1c8.7,0,16.1,7,16.1,16.1C139.2,132.6,132.3,140,123.6,140z"/>
<path d="M175.7,200H71c-13,0-23.5-10.4-23.5-23.5V71.3c0-13,10.4-23.5,23.5-23.5h105.2c13,0,23.5,10.4,23.5,23.5v105.2
	C199.7,189.6,188.8,200,175.7,200L175.7,200z M71,56.5c-8.3,0-14.8,6.5-14.8,14.8v105.2c0,8.3,6.5,14.8,14.8,14.8h105.2
	c8.3,0,14.8-6.5,14.8-14.8V71.3c0-8.3-6.5-14.8-14.8-14.8C176.2,56.5,71,56.5,71,56.5z"/>
<path d="M34.7,67c0-13,10.4-23.5,23.5-23.5h93.9v-20c0-13-10.4-23.5-23.5-23.5H23.8C10.8,0,0.3,10.4,0.3,23.5v105.2
	c0,13,10.4,23.5,23.5,23.5h10.9V67z"/>
</svg>
