<?xml version="1.0" encoding="utf-8"?>
<!-- Generator: Adobe Illustrator 24.0.0, SVG Export Plug-In . SVG Version: 6.00 Build 0)  -->
<svg version="1.1" id="图层_1" xmlns="http://www.w3.org/2000/svg" xmlns:xlink="http://www.w3.org/1999/xlink" x="0px" y="0px"
	 viewBox="0 0 200 200" style="enable-background:new 0 0 200 200;" xml:space="preserve">
<style type="text/css">
	.st0{fill:#FD9A16;}
	.st1{fill:#17B3A3;}
</style>
<g>
	<path class="st0" d="M155.9,35.9c2.3,2.3,6.1,2.3,8.4,0l11.5-11.4c3.1-3,3.1-7.6,0-10.7L165,3.3c-3.1-3-7.7-3-10.7,0l-11.5,11.4
		c-2.3,2.3-2.3,6.1,0,8.4L155.9,35.9z"/>
	<path class="st0" d="M64.1,96l-3,17.5c-0.8,2.3,1.5,4.6,3.8,3.8l17.6-4.6c2.3,0,3.1-3,0.8-4.6l-13-13.7
		C68.8,92.9,64.1,93.7,64.1,96z"/>
	<path class="st0" d="M78,91.4l10,9.9c3.1,3,7.7,3,10.7,0l52-51.7c3.1-3,3.1-7.6,0-10.7l-10-9.9c-3.1-3-7.7-3-10.7,0L78,80.8
		C74.9,83.8,74.9,88.4,78,91.4z"/>
</g>
<path class="st1" d="M172.7,86.5c-5.8,0-10.6,4.8-10.6,10.6v68.3c0,5.8-0.8,10.6-6.6,10.6H41.2c-5.8,0-10.6-4.8-10.6-10.6V32.7
	c0-5.8,4.8-10.6,10.6-10.6h41.3c5.8,0,10.6-4.8,10.6-10.6S88.3,1,82.5,1H41.2C22.8,1,8.3,15.4,8.3,33.7v133.7
	c0,18.3,14.5,32.7,32.9,32.7h114.3c18.4,0,28.9-14.4,28.9-32.7V99C183.4,91.3,178.5,86.5,172.7,86.5z"/>
</svg>
