<?xml version="1.0" encoding="utf-8"?>
<!-- Generator: Adobe Illustrator 24.0.0, SVG Export Plug-In . SVG Version: 6.00 Build 0)  -->
<svg version="1.1" id="图层_1" xmlns="http://www.w3.org/2000/svg" xmlns:xlink="http://www.w3.org/1999/xlink" x="0px" y="0px"
	 viewBox="0 0 200 200" style="enable-background:new 0 0 200 200;" xml:space="preserve">
<style type="text/css">
	.st0{fill:#17B3A3;}
	.st1{fill:#FD9A16;}
</style>
<path class="st0" d="M172.7,86.5c-5.8,0-10.6,4.8-10.6,10.6v68.3c0,5.8-0.8,10.6-6.6,10.6H41.2c-5.8,0-10.6-4.8-10.6-10.6V32.7
	c0-5.8,4.8-10.6,10.6-10.6h41.3c5.8,0,10.6-4.8,10.6-10.6S88.3,1,82.5,1H41.2C22.8,1,8.3,15.4,8.3,33.7v133.7
	c0,18.3,14.5,32.7,32.9,32.7h114.3c18.4,0,28.9-14.4,28.9-32.7V99C183.4,91.3,178.5,86.5,172.7,86.5z"/>
<path class="st1" d="M102.4,116l17.5-19.5l-18.1-3.9L102.4,116L102.4,116z M55,63.2l40.1,12.1l49.3-45.9l-38.2,49.1l49.5,13.2
	L171.1,0L55,63.2z"/>
</svg>
