<?xml version="1.0" encoding="utf-8"?>
<!-- Generator: Adobe Illustrator 24.0.0, SVG Export Plug-In . SVG Version: 6.00 Build 0)  -->
<svg version="1.1" id="图层_1" xmlns="http://www.w3.org/2000/svg" xmlns:xlink="http://www.w3.org/1999/xlink" x="0px" y="0px"
	 viewBox="0 0 200 200" style="enable-background:new 0 0 200 200;" xml:space="preserve">
<path d="M175,25h-74.6c-4.7,0-9.2-2.2-12-5.9l-13-11.9c-0.2-0.2-0.4-0.4-0.6-0.7C71.6,2.4,66.6,0,61.4,0H25C11.2,0,0,11.2,0,25
	v149.7c0.1,14,11.4,25.3,25.4,25.3h149.2c14,0,25.3-11.3,25.4-25.3V50C200,36.2,188.8,25,175,25z M155.8,127.8H145l-13.5,30.6
	c-3.6,8.1-14.4,7.2-17.1-0.9v-0.9l-8.1-47.7l-5.4,20.7c-1.8,7.2-11.7,9-16.2,3.6l-0.9-0.9l-9-16.2l-7.2,8.1
	c-1.8,1.8-3.6,2.7-5.4,2.7H45.1c-5.4,0-9-3.6-9-9c0-4.5,3.6-8.1,8.1-9h12.6l12.6-15.3c3.6-4.5,10.8-3.6,13.5,0l0.9,0.9l4.5,8.1
	l9.9-41.4c3.6-7.2,16.2-7.2,18,0.9V63l10.8,60.3l3.6-8.1c0.9-2.7,3.6-4.5,7.2-5.4h17.1c5.4,0,9,3.6,9,9
	C163.9,123.3,160.3,126.9,155.8,127.8z"/>
</svg>
