<?xml version="1.0" encoding="utf-8"?>
<!-- Generator: Adobe Illustrator 24.0.0, SVG Export Plug-In . SVG Version: 6.00 Build 0)  -->
<svg version="1.1" id="图层_1" xmlns="http://www.w3.org/2000/svg" xmlns:xlink="http://www.w3.org/1999/xlink" x="0px" y="0px"
	 viewBox="0 0 200 200" style="enable-background:new 0 0 200 200;" xml:space="preserve">
<path d="M178.4,18.4c-1.6-1.6-3.1-5.1-6.7-6.7c-1.6-1.6-3.1-5.1-5.1-6.7C165.1,2,161.6,0,158.4,0H48.6c-3.1,0-6.7,0-8.2,1.6
	c-1.6,1.6-3.1,1.6-5.1,3.1l-5.1,5.5l-8.6,8.2c-1.6,3.1-4.7,6.7-6.7,9.8h171.4C183.1,25.1,181.6,21.6,178.4,18.4z M180,129.8H20
	c-6.7,0-11.8,1.6-14.9,5.1C2,140,0,143.1,0,148.2V180c0,6.7,1.6,11.8,6.7,14.9C9.8,198,14.9,200,20,200h158.4
	c6.7,0,11.8-1.6,14.9-5.1s5.1-8.2,5.1-13.3v-33.3c0-5.1-1.6-9.8-5.1-13.3C191.4,131.8,186.7,129.8,180,129.8L180,129.8z
	 M116.5,169.8c-1.6,1.6-1.6,1.6-3.1,1.6H88.2c-1.6,0-3.1,0-5.1-1.6c0-1.6-1.6-3.1-1.6-5.1c0-1.6,0-3.1,1.6-3.1
	c1.6-1.6,1.6-1.6,5.1-1.6h23.5c1.6,0,3.1,0,3.1,1.6c1.6,1.6,1.6,1.6,1.6,3.1C118.4,166.7,116.5,168.2,116.5,169.8z M194.9,51.8
	c-3.1-3.1-8.2-5.1-14.9-5.1H20c-6.7,0-11.8,1.6-14.9,5.1C2,55.3,0,58.4,0,63.5v33.3c0,5.1,1.6,9.8,5.1,13.3s8.2,5.1,14.9,5.1h160
	c6.7,0,11.8-1.6,14.9-5.1c3.1-3.5,5.1-8.2,5.1-13.3V63.5C200,58.4,198,54.9,194.9,51.8z M111.8,86.7H88.2c-1.6,0-3.1,0-3.1-1.6
	c-1.6-1.6-1.6-1.6-3.1-5.1c0-1.6,0-3.1,1.6-3.1c1.6-1.6,1.6-1.6,5.1-1.6h23.1c1.6,0,3.1,0,3.1,1.6c1.6,0,3.1,1.6,3.1,3.1
	C116.5,85.1,114.9,86.7,111.8,86.7z"/>
</svg>
